# xmcd
#
# Track frame offsets:
#	150
#	13819
#	25349
#	35846
#	50725
#	63549
#	75062
#	91585
#	108788
#	119554
#	130472
#	146632
#	160802
#	179548
#
# Disc length: 2515 seconds
#
# Revision: 0
# Processed by: cddbd v1.5.2PL0 Copyright (c) Steve Scherf et al.
# Submitted via: EasyCDDAExtractor 11.9.9.666
#
DISCID=bc09d10e
DTITLE=Cary Morin - Tiny Town
DYEAR=2014
DGENRE=Blues
TTITLE0=Angels and Devils
TTITLE1=Yellow Dog Blues
TTITLE2=Tiny Town
TTITLE3=When the Levee Breaks
TTITLE4=Broke Down Place
TTITLE5=Valley of the Chiefs
TTITLE6=Obstacles to Negotiate
TTITLE7=Me and My Broken Heart
TTITLE8=Endless Possibilities
TTITLE9=July Waltz
TTITLE10=Not Ever Again
TTITLE11=Yellow Bird
TTITLE12=Wrong Side of the Law
TTITLE13=July Waltz reprise
EXTD=
EXTT0=
EXTT1=
EXTT2=
EXTT3=
EXTT4=
EXTT5=
EXTT6=
EXTT7=
EXTT8=
EXTT9=
EXTT10=
EXTT11=
EXTT12=
EXTT13=
PLAYORDER=
